<svg height="400" width="968" xmlns="http://www.w3.org/2000/svg">
<style>
path.link{fill:none;stroke:#7f8c8d;stroke-width:2px}
text{font-family:sans-serif;pointer-events:none}
marker{fill:#d8dadc}
text .faded{fill:#333}
.node .outline{-webkit-transform:scale(1);-moz-transform:scale(1);-o-transform:scale(1);-ms-transform:scale(1);transform:scale(1);-webkit-transition:all .15s;-moz-transition:all .15s;-o-transition:all .15s;-ms-transition:all .15s;transition:all .15s;-webkit-transition-timing-function:cubic-bezier(.694,.0482,.335,1);-moz-transition-timing-function:cubic-bezier(.694,.0482,.335,1);-o-transition-timing-function:cubic-bezier(.694,.0482,.335,1);-ms-transition-timing-function:cubic-bezier(.694,.0482,.335,1);transition-timing-function:cubic-bezier(.694,.0482,.335,1)}
.node:hover .outline{-webkit-transform:scale(1.4);-moz-transform:scale(1.4);-o-transform:scale(1.4);-ms-transform:scale(1.4);transform:scale(1.4)}
.relationship:hover{stroke:#3498db}
.outline,.overlay{cursor:pointer}
g.node text[stroke="#DFE1E3"] {text-shadow: -1px -1px 2px #DFE1E3, -1px 1px 2px #DFE1E3, -1px 0 2px #DFE1E3, 1px -1px 2px #DFE1E3, 1px 1px 2px #DFE1E3, 1px 0 2px #DFE1E3, 0 -1px 2px #DFE1E3, 0 1px 2px #DFE1E3}
g.node text[stroke="#F25A29"] {text-shadow: -1px -1px 2px #F25A29, -1px 1px 2px #F25A29, -1px 0 2px #F25A29, 1px -1px 2px #F25A29, 1px 1px 2px #F25A29, 1px 0 2px #F25A29, 0 -1px 2px #F25A29, 0 1px 2px #F25A29}
g.node text[stroke="#AD62CE"] {text-shadow: -1px -1px 2px #AD62CE, -1px 1px 2px #AD62CE, -1px 0 2px #AD62CE, 1px -1px 2px #AD62CE, 1px 1px 2px #AD62CE, 1px 0 2px #AD62CE, 0 -1px 2px #AD62CE, 0 1px 2px #AD62CE}
g.node text[stroke="#30B6AF"] {text-shadow: -1px -1px 2px #30B6AF, -1px 1px 2px #30B6AF, -1px 0 2px #30B6AF, 1px -1px 2px #30B6AF, 1px 1px 2px #30B6AF, 1px 0 2px #30B6AF, 0 -1px 2px #30B6AF, 0 1px 2px #30B6AF}
g.node text[stroke="#FCC940"] {text-shadow: -1px -1px 2px #FCC940, -1px 1px 2px #FCC940, -1px 0 2px #FCC940, 1px -1px 2px #FCC940, 1px 1px 2px #FCC940, 1px 0 2px #FCC940, 0 -1px 2px #FCC940, 0 1px 2px #FCC940}
g.node text[stroke="#4356C0"] {text-shadow: -1px -1px 2px #4356C0, -1px 1px 2px #4356C0, -1px 0 2px #4356C0, 1px -1px 2px #4356C0, 1px 1px 2px #4356C0, 1px 0 2px #4356C0, 0 -1px 2px #4356C0, 0 1px 2px #4356C0}
g.node text[stroke="#FF6C7C"] {text-shadow: -1px -1px 2px #FF6C7C, -1px 1px 2px #FF6C7C, -1px 0 2px #FF6C7C, 1px -1px 2px #FF6C7C, 1px 1px 2px #FF6C7C, 1px 0 2px #FF6C7C, 0 -1px 2px #FF6C7C, 0 1px 2px #FF6C7C}
g.node text[stroke="#a2cf81"] {text-shadow: -1px -1px 2px #a2cf81, -1px 1px 2px #a2cf81, -1px 0 2px #a2cf81, 1px -1px 2px #a2cf81, 1px 1px 2px #a2cf81, 1px 0 2px #a2cf81, 0 -1px 2px #a2cf81, 0 1px 2px #a2cf81}
g.node text[stroke="#f79235"] {text-shadow: -1px -1px 2px #f79235, -1px 1px 2px #f79235, -1px 0 2px #f79235, 1px -1px 2px #f79235, 1px 1px 2px #f79235, 1px 0 2px #f79235, 0 -1px 2px #f79235, 0 1px 2px #f79235}
g.node text[stroke="#785cc7"] {text-shadow: -1px -1px 2px #785cc7, -1px 1px 2px #785cc7, -1px 0 2px #785cc7, 1px -1px 2px #785cc7, 1px 1px 2px #785cc7, 1px 0 2px #785cc7, 0 -1px 2px #785cc7, 0 1px 2px #785cc7}
g.node text[stroke="#d05e7c"] {text-shadow: -1px -1px 2px #d05e7c, -1px 1px 2px #d05e7c, -1px 0 2px #d05e7c, 1px -1px 2px #d05e7c, 1px 1px 2px #d05e7c, 1px 0 2px #d05e7c, 0 -1px 2px #d05e7c, 0 1px 2px #d05e7c}
g.node text[stroke="#3986b7"] {text-shadow: -1px -1px 2px #3986b7, -1px 1px 2px #3986b7, -1px 0 2px #3986b7, 1px -1px 2px #3986b7, 1px 1px 2px #3986b7, 1px 0 2px #3986b7, 0 -1px 2px #3986b7, 0 1px 2px #3986b7}

</style>
<g class="layer relationships"><g class="relationship"><path fill="#4356C0" stroke="none" d="M 0 1.5 L 19.196334097215725 1.5 L 19.196334097215725 -1.5 L 0 -1.5 Z M 67.53764269096573 1.5 L 86.73397678818145 1.5 L 86.73397678818145 4.5 L 95.73397678818145 0 L 86.73397678818145 -4.5 L 86.73397678818145 -1.5 L 67.53764269096573 -1.5 Z" transform="translate(506.48410542360057 82.12776501985743) rotate(-15.552965501504698)"/><text text-anchor="middle" font-size="9px" fill="#000000" x="548.2631248195692" y="73.99981504213233" transform="rotate(-15.552965501504698 548.2631248195692 70.49981504213233)">CREATED</text><rect class="overlay" fill="yellow" x="0" y="-10" height="20" opacity="0" width="95.73397678818145" transform="translate(506.48410542360057 82.12776501985743) rotate(-15.552965501504698)"/></g><g class="relationship"><path fill="#4356C0" stroke="none" d="M 0 1.5 L 14.94875326378348 1.5 L 14.94875326378348 -1.5 L 0 -1.5 Z M 63.29006185753348 1.5 L 78.23881512131696 1.5 L 78.23881512131696 4.5 L 87.23881512131696 0 L 78.23881512131696 -4.5 L 78.23881512131696 -1.5 L 63.29006185753348 -1.5 Z" transform="translate(468.2625222388179 81.10686791002536) rotate(-161.38702563970674)"/><text text-anchor="middle" font-size="9px" fill="#000000" x="431.1892099562182" y="72.12097329675305" transform="rotate(18.612974360293265 431.1892099562182 68.62097329675305)">CREATED</text><rect class="overlay" fill="yellow" x="0" y="-10" height="20" opacity="0" width="87.23881512131696" transform="translate(468.2625222388179 81.10686791002536) rotate(-161.38702563970674)"/></g><g class="relationship"><path fill="#4356C0" stroke="none" d="M 0 1.5 L 66.26359496025799 1.5 L 66.26359496025799 -1.5 L 0 -1.5 Z M 130.772384022758 1.5 L 197.03597898301598 1.5 L 197.03597898301598 4.5 L 206.03597898301598 0 L 197.03597898301598 -4.5 L 197.03597898301598 -1.5 L 130.772384022758 -1.5 Z" transform="translate(487.0399602131313 107.48956759570582) rotate(90.50559942608348)"/><text text-anchor="middle" font-size="9px" fill="#000000" x="486.1706118437407" y="209.50372133445302" transform="rotate(270.50559942608345 486.1706118437407 206.00372133445302)">SUBJECT_OF</text><rect class="overlay" fill="yellow" x="0" y="-10" height="20" opacity="0" width="206.03597898301598" transform="translate(487.0399602131313 107.48956759570582) rotate(90.50559942608348)"/></g><g class="relationship"><path fill="#4356C0" stroke="none" d="M 0 1.5 L 19.283913401441396 1.5 L 19.283913401441396 -1.5 L 0 -1.5 Z M 85.3044212139414 1.5 L 104.58833461538279 1.5 L 104.58833461538279 4.5 L 113.58833461538279 0 L 104.58833461538279 -4.5 L 104.58833461538279 -1.5 L 85.3044212139414 -1.5 Z" transform="translate(506.7436162387671 91.81349325013436) rotate(12.483435230207514)"/><text text-anchor="middle" font-size="9px" fill="#000000" x="557.8014731406548" y="106.61726178063681" transform="rotate(12.483435230207514 557.8014731406548 103.11726178063681)">EXAMPLE_OF</text><rect class="overlay" fill="yellow" x="0" y="-10" height="20" opacity="0" width="113.58833461538279" transform="translate(506.7436162387671 91.81349325013436) rotate(12.483435230207514)"/></g><g class="relationship"><path fill="#4356C0" stroke="none" d="M 0 1.5 L 190.89221695006697 1.5 L 190.89221695006697 -1.5 L 0 -1.5 Z M 267.903447418817 1.5 L 458.79566436888393 1.5 L 458.79566436888393 4.5 L 467.79566436888393 0 L 458.79566436888393 -4.5 L 458.79566436888393 -1.5 L 267.903447418817 -1.5 Z" transform="translate(151.5051005022939 166.19338114976117) rotate(-5.352591952910644)"/><text text-anchor="middle" font-size="9px" fill="#000000" x="379.9026414918409" y="148.29411291812326" transform="rotate(-5.352591952910644 379.9026414918409 144.79411291812326)">INTERESTED_IN</text><rect class="overlay" fill="yellow" x="0" y="-10" height="20" opacity="0" width="467.79566436888393" transform="translate(151.5051005022939 166.19338114976117) rotate(-5.352591952910644)"/></g><g class="relationship"><path fill="#4356C0" stroke="none" d="M 0 1.5 L 31.08372819630003 1.5 L 31.08372819630003 -1.5 L 0 -1.5 Z M 108.09495866505003 1.5 L 139.17868686135006 1.5 L 139.17868686135006 4.5 L 148.17868686135006 0 L 139.17868686135006 -4.5 L 139.17868686135006 -1.5 L 108.09495866505003 -1.5 Z" transform="translate(150.7612158896724 162.3535416707329) rotate(-16.57537707140839)"/><text text-anchor="middle" font-size="9px" fill="#000000" x="217.4587923084584" y="146.00133728500703" transform="rotate(-16.57537707140839 217.4587923084584 142.50133728500703)">INTERESTED_IN</text><rect class="overlay" fill="yellow" x="0" y="-10" height="20" opacity="0" width="148.17868686135006" transform="translate(150.7612158896724 162.3535416707329) rotate(-16.57537707140839)"/></g><g class="relationship"><path fill="#4356C0" stroke="none" d="M 0 1.5 L 25.609912435017222 1.5 L 25.609912435017222 -1.5 L 0 -1.5 Z M 102.62114290376722 1.5 L 128.23105533878444 1.5 L 128.23105533878444 4.5 L 137.23105533878444 0 L 128.23105533878444 -4.5 L 128.23105533878444 -1.5 L 102.62114290376722 -1.5 Z" transform="translate(786.3296631027893 170.430036787543) rotate(-161.55751541253167)"/><text text-anchor="middle" font-size="9px" fill="#000000" x="725.5070000448397" y="153.6469268962138" transform="rotate(18.44248458746833 725.5070000448397 150.1469268962138)">INTERESTED_IN</text><rect class="overlay" fill="yellow" x="0" y="-10" height="20" opacity="0" width="137.23105533878444" transform="translate(786.3296631027893 170.430036787543) rotate(-161.55751541253167)"/></g><g class="relationship"><path fill="#4356C0" stroke="none" d="M 0 1.5 L 185.63408791141387 1.5 L 185.63408791141387 -1.5 L 0 -1.5 Z M 262.64531838016387 1.5 L 448.27940629157774 1.5 L 448.27940629157774 4.5 L 457.27940629157774 0 L 448.27940629157774 -4.5 L 448.27940629157774 -1.5 L 262.64531838016387 -1.5 Z" transform="translate(785.4604843283706 174.24819727492138) rotate(-172.7935734118831)"/><text text-anchor="middle" font-size="9px" fill="#000000" x="563.0913420478615" y="149.6311012706561" transform="rotate(7.206426588116898 563.0913420478615 146.1311012706561)">INTERESTED_IN</text><rect class="overlay" fill="yellow" x="0" y="-10" height="20" opacity="0" width="457.27940629157774" transform="translate(785.4604843283706 174.24819727492138) rotate(-172.7935734118831)"/></g><g class="relationship"><path fill="#4356C0" stroke="none" d="M 0 1.5 L 134.12984920740035 1.5 L 134.12984920740035 -1.5 L 0 -1.5 Z M 207.13326717615035 1.5 L 341.2631163835507 1.5 L 341.2631163835507 4.5 L 350.2631163835507 0 L 341.2631163835507 -4.5 L 341.2631163835507 -1.5 L 207.13326717615035 -1.5 Z" transform="translate(466.93178299058275 325.03745764835736) rotate(-154.91486807796568)"/><text text-anchor="middle" font-size="9px" fill="#000000" x="312.3943901122774" y="256.19574870165417" transform="rotate(25.08513192203432 312.3943901122774 252.69574870165417)">TRAINING_FOR</text><rect class="overlay" fill="yellow" x="0" y="-10" height="20" opacity="0" width="350.2631163835507" transform="translate(466.93178299058275 325.03745764835736) rotate(-154.91486807796568)"/></g><g class="relationship"><path fill="#4356C0" stroke="none" d="M 0 1.5 L 117.28052821221544 1.5 L 117.28052821221544 -1.5 L 0 -1.5 Z M 190.28394618096544 1.5 L 307.5644743931809 1.5 L 307.5644743931809 4.5 L 316.5644743931809 0 L 307.5644743931809 -4.5 L 307.5644743931809 -1.5 L 190.28394618096544 -1.5 Z" transform="translate(503.0088509749922 324.72396544031454) rotate(-26.08085188327442)"/><text text-anchor="middle" font-size="9px" fill="#000000" x="641.132143014482" y="260.61529237714757" transform="rotate(-26.08085188327442 641.132143014482 257.11529237714757)">TRAINING_FOR</text><rect class="overlay" fill="yellow" x="0" y="-10" height="20" opacity="0" width="316.5644743931809" transform="translate(503.0088509749922 324.72396544031454) rotate(-26.08085188327442)"/></g><g class="relationship"><path fill="#4356C0" stroke="none" d="M 0 1.5 L 90.87628226727892 1.5 L 90.87628226727892 -1.5 L 0 -1.5 Z M 139.38018851727892 1.5 L 230.25647078455785 1.5 L 230.25647078455785 4.5 L 239.25647078455785 0 L 230.25647078455785 -4.5 L 230.25647078455785 -1.5 L 139.38018851727892 -1.5 Z" transform="translate(472.64857799305844 317.82216736572167) rotate(-128.30438542438847)"/><text text-anchor="middle" font-size="9px" fill="#000000" x="401.2875965470329" y="230.97771036032495" transform="rotate(51.69561457561153 401.2875965470329 227.47771036032495)">FOSTERS</text><rect class="overlay" fill="yellow" x="0" y="-10" height="20" opacity="0" width="239.25647078455785" transform="translate(472.64857799305844 317.82216736572167) rotate(-128.30438542438847)"/></g><g class="relationship"><path fill="#4356C0" stroke="none" d="M 0 1.5 L 82.05175205881551 1.5 L 82.05175205881551 -1.5 L 0 -1.5 Z M 130.5556583088155 1.5 L 212.60741036763102 1.5 L 212.60741036763102 4.5 L 221.60741036763102 0 L 212.60741036763102 -4.5 L 212.60741036763102 -1.5 L 130.5556583088155 -1.5 Z" transform="translate(496.67563963721716 317.2460178400498) rotate(-54.44290109328509)"/><text text-anchor="middle" font-size="9px" fill="#000000" x="558.4927308983196" y="234.26408351949874" transform="rotate(-54.44290109328509 558.4927308983196 230.76408351949874)">FOSTERS</text><rect class="overlay" fill="yellow" x="0" y="-10" height="20" opacity="0" width="221.60741036763102" transform="translate(496.67563963721716 317.2460178400498) rotate(-54.44290109328509)"/></g></g><g class="layer nodes"><g class="node" transform="translate(487.2164454162658,87.49034628653794)"><circle class="outline" cx="0" cy="0" r="20" fill="#F25A29" stroke="#DC4717" stroke-width="2px"/><text text-anchor="middle" font-weight="bold" stroke="#F25A29" stroke-width="0" y="5" font-size="12px" fill="#FFFFFF">Panini</text></g><g class="node" transform="translate(131.59231067209976,168.0590716864034)"><circle class="outline" cx="0" cy="0" r="20" fill="#AD62CE" stroke="#9453B1" stroke-width="2px"/><text text-anchor="middle" font-weight="bold" stroke="#AD62CE" stroke-width="0" y="-5" font-size="12px" fill="#FFFFFF">The</text><text text-anchor="middle" font-weight="bold" stroke="#AD62CE" stroke-width="0" y="5" font-size="12px" fill="#FFFFFF">Writing</text><text text-anchor="middle" font-weight="bold" stroke="#AD62CE" stroke-width="0" y="15" font-size="12px" fill="#FFFFFF">Studio</text></g><g class="node" transform="translate(805.3024970694933,176.75708754377098)"><circle class="outline" cx="0" cy="0" r="20" fill="#AD62CE" stroke="#9453B1" stroke-width="2px"/><text text-anchor="middle" font-weight="bold" stroke="#AD62CE" stroke-width="0" y="0" font-size="12px" fill="#FFFFFF">Tutoring</text><text text-anchor="middle" font-weight="bold" stroke="#AD62CE" stroke-width="0" y="10" font-size="12px" fill="#FFFFFF">Services</text></g><g class="node" transform="translate(485.04535992980504,333.5167459714936)"><circle class="outline" cx="0" cy="0" r="20" fill="#30B6AF" stroke="#46A39E" stroke-width="2px"/><text text-anchor="middle" font-weight="bold" stroke="#30B6AF" stroke-width="0" y="-5" font-size="12px" fill="#FFFFFF">The</text><text text-anchor="middle" font-weight="bold" stroke="#30B6AF" stroke-width="0" y="5" font-size="12px" fill="#FFFFFF">Panini</text><text text-anchor="middle" font-weight="bold" stroke="#30B6AF" stroke-width="0" y="15" font-size="12px" fill="#FFFFFF">Project</text></g><g class="node" transform="translate(366.63270906631897,46.879035037537506)"><circle class="outline" cx="0" cy="0" r="20" fill="#FCC940" stroke="#F3BA25" stroke-width="2px"/><text text-anchor="middle" font-weight="bold" stroke="#FCC940" stroke-width="0" y="0" font-size="12px" fill="#000000">Sanskrit</text><text text-anchor="middle" font-weight="bold" stroke="#FCC940" stroke-width="0" y="10" font-size="12px" fill="#000000">Grammar</text></g><g class="node" transform="translate(617.9802512261732,51.09612222772046)"><circle class="outline" cx="0" cy="0" r="20" fill="#FCC940" stroke="#F3BA25" stroke-width="2px"/><text text-anchor="middle" font-weight="bold" stroke="#FCC940" stroke-width="0" y="-5" font-size="12px" fill="#000000">The</text><text text-anchor="middle" font-weight="bold" stroke="#FCC940" stroke-width="0" y="5" font-size="12px" fill="#000000">Number</text><text text-anchor="middle" font-weight="bold" stroke="#FCC940" stroke-width="0" y="15" font-size="12px" fill="#000000">Zero</text></g><g class="node" transform="translate(311.95128129272473,114.37611437655895)"><circle class="outline" cx="0" cy="0" r="20" fill="#FCC940" stroke="#F3BA25" stroke-width="2px"/><text text-anchor="middle" font-weight="bold" stroke="#FCC940" stroke-width="0" y="0" font-size="12px" fill="#000000">Collaborative</text><text text-anchor="middle" font-weight="bold" stroke="#FCC940" stroke-width="0" y="10" font-size="12px" fill="#000000">Learning</text></g><g class="node" transform="translate(637.1737277351695,120.68959340835409)"><circle class="outline" cx="0" cy="0" r="20" fill="#FCC940" stroke="#F3BA25" stroke-width="2px"/><text text-anchor="middle" font-weight="bold" stroke="#FCC940" stroke-width="0" y="5" font-size="12px" fill="#000000">Transdisciplinarity</text></g></g></svg>