<svg height="400" width="968" xmlns="http://www.w3.org/2000/svg">
<style>
path.link{fill:none;stroke:#7f8c8d;stroke-width:2px}
text{font-family:sans-serif;pointer-events:none}
marker{fill:#d8dadc}
text .faded{fill:#333}
.node .outline{-webkit-transform:scale(1);-moz-transform:scale(1);-o-transform:scale(1);-ms-transform:scale(1);transform:scale(1);-webkit-transition:all .15s;-moz-transition:all .15s;-o-transition:all .15s;-ms-transition:all .15s;transition:all .15s;-webkit-transition-timing-function:cubic-bezier(.694,.0482,.335,1);-moz-transition-timing-function:cubic-bezier(.694,.0482,.335,1);-o-transition-timing-function:cubic-bezier(.694,.0482,.335,1);-ms-transition-timing-function:cubic-bezier(.694,.0482,.335,1);transition-timing-function:cubic-bezier(.694,.0482,.335,1)}
.node:hover .outline{-webkit-transform:scale(1.4);-moz-transform:scale(1.4);-o-transform:scale(1.4);-ms-transform:scale(1.4);transform:scale(1.4)}
.relationship:hover{stroke:#3498db}
.outline,.overlay{cursor:pointer}
g.node text[stroke="#DFE1E3"] {text-shadow: -1px -1px 2px #DFE1E3, -1px 1px 2px #DFE1E3, -1px 0 2px #DFE1E3, 1px -1px 2px #DFE1E3, 1px 1px 2px #DFE1E3, 1px 0 2px #DFE1E3, 0 -1px 2px #DFE1E3, 0 1px 2px #DFE1E3}
g.node text[stroke="#F25A29"] {text-shadow: -1px -1px 2px #F25A29, -1px 1px 2px #F25A29, -1px 0 2px #F25A29, 1px -1px 2px #F25A29, 1px 1px 2px #F25A29, 1px 0 2px #F25A29, 0 -1px 2px #F25A29, 0 1px 2px #F25A29}
g.node text[stroke="#AD62CE"] {text-shadow: -1px -1px 2px #AD62CE, -1px 1px 2px #AD62CE, -1px 0 2px #AD62CE, 1px -1px 2px #AD62CE, 1px 1px 2px #AD62CE, 1px 0 2px #AD62CE, 0 -1px 2px #AD62CE, 0 1px 2px #AD62CE}
g.node text[stroke="#30B6AF"] {text-shadow: -1px -1px 2px #30B6AF, -1px 1px 2px #30B6AF, -1px 0 2px #30B6AF, 1px -1px 2px #30B6AF, 1px 1px 2px #30B6AF, 1px 0 2px #30B6AF, 0 -1px 2px #30B6AF, 0 1px 2px #30B6AF}
g.node text[stroke="#FCC940"] {text-shadow: -1px -1px 2px #FCC940, -1px 1px 2px #FCC940, -1px 0 2px #FCC940, 1px -1px 2px #FCC940, 1px 1px 2px #FCC940, 1px 0 2px #FCC940, 0 -1px 2px #FCC940, 0 1px 2px #FCC940}
g.node text[stroke="#4356C0"] {text-shadow: -1px -1px 2px #4356C0, -1px 1px 2px #4356C0, -1px 0 2px #4356C0, 1px -1px 2px #4356C0, 1px 1px 2px #4356C0, 1px 0 2px #4356C0, 0 -1px 2px #4356C0, 0 1px 2px #4356C0}
g.node text[stroke="#FF6C7C"] {text-shadow: -1px -1px 2px #FF6C7C, -1px 1px 2px #FF6C7C, -1px 0 2px #FF6C7C, 1px -1px 2px #FF6C7C, 1px 1px 2px #FF6C7C, 1px 0 2px #FF6C7C, 0 -1px 2px #FF6C7C, 0 1px 2px #FF6C7C}
g.node text[stroke="#a2cf81"] {text-shadow: -1px -1px 2px #a2cf81, -1px 1px 2px #a2cf81, -1px 0 2px #a2cf81, 1px -1px 2px #a2cf81, 1px 1px 2px #a2cf81, 1px 0 2px #a2cf81, 0 -1px 2px #a2cf81, 0 1px 2px #a2cf81}
g.node text[stroke="#f79235"] {text-shadow: -1px -1px 2px #f79235, -1px 1px 2px #f79235, -1px 0 2px #f79235, 1px -1px 2px #f79235, 1px 1px 2px #f79235, 1px 0 2px #f79235, 0 -1px 2px #f79235, 0 1px 2px #f79235}
g.node text[stroke="#785cc7"] {text-shadow: -1px -1px 2px #785cc7, -1px 1px 2px #785cc7, -1px 0 2px #785cc7, 1px -1px 2px #785cc7, 1px 1px 2px #785cc7, 1px 0 2px #785cc7, 0 -1px 2px #785cc7, 0 1px 2px #785cc7}
g.node text[stroke="#d05e7c"] {text-shadow: -1px -1px 2px #d05e7c, -1px 1px 2px #d05e7c, -1px 0 2px #d05e7c, 1px -1px 2px #d05e7c, 1px 1px 2px #d05e7c, 1px 0 2px #d05e7c, 0 -1px 2px #d05e7c, 0 1px 2px #d05e7c}
g.node text[stroke="#3986b7"] {text-shadow: -1px -1px 2px #3986b7, -1px 1px 2px #3986b7, -1px 0 2px #3986b7, 1px -1px 2px #3986b7, 1px 1px 2px #3986b7, 1px 0 2px #3986b7, 0 -1px 2px #3986b7, 0 1px 2px #3986b7}

</style>
<g class="layer relationships"><g class="relationship"><path fill="#4356C0" stroke="none" d="M 0 1.5 L 29.78777877011464 1.5 L 29.78777877011464 -1.5 L 0 -1.5 Z M 78.12908736386464 1.5 L 107.91686613397928 1.5 L 107.91686613397928 4.5 L 116.91686613397928 0 L 107.91686613397928 -4.5 L 107.91686613397928 -1.5 L 78.12908736386464 -1.5 Z" transform="translate(508.26805840893167 56.37467617724047) rotate(-1.4981083371049788)"/><text text-anchor="middle" font-size="9px" fill="#000000" x="562.208047872808" y="58.46398993228648" transform="rotate(-1.4981083371049788 562.208047872808 54.96398993228648)">CREATED</text><rect class="overlay" fill="yellow" x="0" y="-10" height="20" opacity="0" width="116.91686613397928" transform="translate(508.26805840893167 56.37467617724047) rotate(-1.4981083371049788)"/></g><g class="relationship"><path fill="#4356C0" stroke="none" d="M 0 1.5 L 24.26851962930816 1.5 L 24.26851962930816 -1.5 L 0 -1.5 Z M 72.60982822305816 1.5 L 96.87834785236632 1.5 L 96.87834785236632 4.5 L 105.87834785236632 0 L 96.87834785236632 -4.5 L 96.87834785236632 -1.5 L 72.60982822305816 -1.5 Z" transform="translate(468.27667459127247 56.63073100917753) rotate(-179.23558273932363)"/><text text-anchor="middle" font-size="9px" fill="#000000" x="419.84181164496556" y="59.4844941922994" transform="rotate(0.7644172606763675 419.84181164496556 55.9844941922994)">CREATED</text><rect class="overlay" fill="yellow" x="0" y="-10" height="20" opacity="0" width="105.87834785236632" transform="translate(468.27667459127247 56.63073100917753) rotate(-179.23558273932363)"/></g><g class="relationship"><path fill="#4356C0" stroke="none" d="M 0 1.5 L 14.135559812359247 1.5 L 14.135559812359247 -1.5 L 0 -1.5 Z M 78.64434887485925 1.5 L 92.7799086872185 1.5 L 92.7799086872185 4.5 L 101.7799086872185 0 L 92.7799086872185 -4.5 L 92.7799086872185 -1.5 L 78.64434887485925 -1.5 Z" transform="translate(499.96549302885643 73.12499814327046) rotate(54.23021206838478)"/><text text-anchor="middle" font-size="9px" fill="#000000" x="527.0818093152126" y="114.26451534342124" transform="rotate(54.23021206838478 527.0818093152126 110.76451534342124)">SUBJECT_OF</text><rect class="overlay" fill="yellow" x="0" y="-10" height="20" opacity="0" width="101.7799086872185" transform="translate(499.96549302885643 73.12499814327046) rotate(54.23021206838478)"/></g><g class="relationship"><path fill="#4356C0" stroke="none" d="M 0 1.5 L 6.897671815893958 1.5 L 6.897671815893958 -1.5 L 0 -1.5 Z M 72.91817962839396 1.5 L 79.81585144428792 1.5 L 79.81585144428792 4.5 L 88.81585144428792 0 L 79.81585144428792 -4.5 L 79.81585144428792 -1.5 L 72.91817962839396 -1.5 Z" transform="translate(478.3942458480127 74.28642446977373) rotate(119.6059685127431)"/><text text-anchor="middle" font-size="9px" fill="#000000" x="458.6784359535544" y="112.48410992067579" transform="rotate(299.6059685127431 458.6784359535544 108.98410992067579)">EXAMPLE_OF</text><rect class="overlay" fill="yellow" x="0" y="-10" height="20" opacity="0" width="88.81585144428792" transform="translate(478.3942458480127 74.28642446977373) rotate(119.6059685127431)"/></g><g class="relationship"><path fill="#4356C0" stroke="none" d="M 0 1.5 L 19.28469576553998 1.5 L 19.28469576553998 -1.5 L 0 -1.5 Z M 96.29592623428998 1.5 L 115.58062199982996 1.5 L 115.58062199982996 4.5 L 124.58062199982996 0 L 115.58062199982996 -4.5 L 115.58062199982996 -1.5 L 96.29592623428998 -1.5 Z" transform="translate(347.2581232831115 291.02783504086887) rotate(-57.643456162837886)"/><text text-anchor="middle" font-size="9px" fill="#000000" x="378.1867035626355" y="245.71038972303262" transform="rotate(-57.643456162837886 378.1867035626355 242.21038972303262)">INTERESTED_IN</text><rect class="overlay" fill="yellow" x="0" y="-10" height="20" opacity="0" width="124.58062199982996" transform="translate(347.2581232831115 291.02783504086887) rotate(-57.643456162837886)"/></g><g class="relationship"><path fill="#4356C0" stroke="none" d="M 0 1.5 L 72.57441917845202 1.5 L 72.57441917845202 -1.5 L 0 -1.5 Z M 149.58564964720202 1.5 L 222.16006882565404 1.5 L 222.16006882565404 4.5 L 231.16006882565404 0 L 222.16006882565404 -4.5 L 222.16006882565404 -1.5 L 149.58564964720202 -1.5 Z" transform="translate(353.85746905257304 297.89237528004975) rotate(-30.099757148425198)"/><text text-anchor="middle" font-size="9px" fill="#000000" x="449.9587547418547" y="245.68495266849908" transform="rotate(-30.099757148425198 449.9587547418547 242.18495266849908)">INTERESTED_IN</text><rect class="overlay" fill="yellow" x="0" y="-10" height="20" opacity="0" width="231.16006882565404" transform="translate(353.85746905257304 297.89237528004975) rotate(-30.099757148425198)"/></g><g class="relationship"><path fill="#4356C0" stroke="none" d="M 0 1.5 L 82.8968544835403 1.5 L 82.8968544835403 -1.5 L 0 -1.5 Z M 159.9080849522903 1.5 L 242.8049394358306 1.5 L 242.8049394358306 4.5 L 251.8049394358306 0 L 242.8049394358306 -4.5 L 242.8049394358306 -1.5 L 159.9080849522903 -1.5 Z" transform="translate(659.0370793237287 306.49620685724) rotate(-149.58580569006378)"/><text text-anchor="middle" font-size="9px" fill="#000000" x="554.3410123694678" y="248.53651911056946" transform="rotate(30.41419430993622 554.3410123694678 245.03651911056946)">INTERESTED_IN</text><rect class="overlay" fill="yellow" x="0" y="-10" height="20" opacity="0" width="251.8049394358306" transform="translate(659.0370793237287 306.49620685724) rotate(-149.58580569006378)"/></g><g class="relationship"><path fill="#4356C0" stroke="none" d="M 0 1.5 L 26.420144094387865 1.5 L 26.420144094387865 -1.5 L 0 -1.5 Z M 103.43137456313787 1.5 L 129.85151865752573 1.5 L 129.85151865752573 4.5 L 138.85151865752573 0 L 129.85151865752573 -4.5 L 129.85151865752573 -1.5 L 103.43137456313787 -1.5 Z" transform="translate(664.5281259913971 300.44155214916344) rotate(-126.00359027414514)"/><text text-anchor="middle" font-size="9px" fill="#000000" x="626.3624308465903" y="251.4179009191689" transform="rotate(53.99640972585486 626.3624308465903 247.9179009191689)">INTERESTED_IN</text><rect class="overlay" fill="yellow" x="0" y="-10" height="20" opacity="0" width="138.85151865752573" transform="translate(664.5281259913971 300.44155214916344) rotate(-126.00359027414514)"/></g></g><g class="layer nodes"><g class="node" transform="translate(488.27489463528775,56.897555054469024)"><circle class="outline" cx="0" cy="0" r="20" fill="#F25A29" stroke="#DC4717" stroke-width="2px"/><text text-anchor="middle" font-weight="bold" stroke="#F25A29" stroke-width="0" y="5" font-size="12px" fill="#FFFFFF">Panini</text></g><g class="node" transform="translate(336.5543981276717,307.92251668323206)"><circle class="outline" cx="0" cy="0" r="20" fill="#AD62CE" stroke="#9453B1" stroke-width="2px"/><text text-anchor="middle" font-weight="bold" stroke="#AD62CE" stroke-width="0" y="-5" font-size="12px" fill="#FFFFFF">The</text><text text-anchor="middle" font-weight="bold" stroke="#AD62CE" stroke-width="0" y="5" font-size="12px" fill="#FFFFFF">Writing</text><text text-anchor="middle" font-weight="bold" stroke="#AD62CE" stroke-width="0" y="15" font-size="12px" fill="#FFFFFF">Studio</text></g><g class="node" transform="translate(676.2848449083214,316.62115536767396)"><circle class="outline" cx="0" cy="0" r="20" fill="#AD62CE" stroke="#9453B1" stroke-width="2px"/><text text-anchor="middle" font-weight="bold" stroke="#AD62CE" stroke-width="0" y="0" font-size="12px" fill="#FFFFFF">Tutoring</text><text text-anchor="middle" font-weight="bold" stroke="#AD62CE" stroke-width="0" y="10" font-size="12px" fill="#FFFFFF">Services</text></g><g class="node" transform="translate(342.40952963483653,54.951362509748606)"><circle class="outline" cx="0" cy="0" r="20" fill="#30B6AF" stroke="#46A39E" stroke-width="2px"/><text text-anchor="middle" font-weight="bold" stroke="#30B6AF" stroke-width="0" y="0" font-size="12px" fill="#FFFFFF">Sanskrit</text><text text-anchor="middle" font-weight="bold" stroke="#30B6AF" stroke-width="0" y="10" font-size="12px" fill="#FFFFFF">Grammar</text></g><g class="node" transform="translate(645.1381248084682,52.79512931535109)"><circle class="outline" cx="0" cy="0" r="20" fill="#30B6AF" stroke="#46A39E" stroke-width="2px"/><text text-anchor="middle" font-weight="bold" stroke="#30B6AF" stroke-width="0" y="5" font-size="12px" fill="#FFFFFF">Zero</text></g><g class="node" transform="translate(571.1494932722434,171.93382502233408)"><circle class="outline" cx="0" cy="0" r="20" fill="#30B6AF" stroke="#46A39E" stroke-width="2px"/><text text-anchor="middle" font-weight="bold" stroke="#30B6AF" stroke-width="0" y="0" font-size="12px" fill="#FFFFFF">Collaborative</text><text text-anchor="middle" font-weight="bold" stroke="#30B6AF" stroke-width="0" y="10" font-size="12px" fill="#FFFFFF">Learning</text></g><g class="node" transform="translate(424.63568531754726,168.89565602376967)"><circle class="outline" cx="0" cy="0" r="20" fill="#30B6AF" stroke="#46A39E" stroke-width="2px"/><text text-anchor="middle" font-weight="bold" stroke="#30B6AF" stroke-width="0" y="5" font-size="12px" fill="#FFFFFF">Transdisciplinarity</text></g></g></svg>