<svg height="400" width="778" xmlns="http://www.w3.org/2000/svg">
<style>
path.link{fill:none;stroke:#7f8c8d;stroke-width:2px}
text{font-family:sans-serif;pointer-events:none}
marker{fill:#d8dadc}
text .faded{fill:#333}
.node .outline{-webkit-transform:scale(1);-moz-transform:scale(1);-o-transform:scale(1);-ms-transform:scale(1);transform:scale(1);-webkit-transition:all .15s;-moz-transition:all .15s;-o-transition:all .15s;-ms-transition:all .15s;transition:all .15s;-webkit-transition-timing-function:cubic-bezier(.694,.0482,.335,1);-moz-transition-timing-function:cubic-bezier(.694,.0482,.335,1);-o-transition-timing-function:cubic-bezier(.694,.0482,.335,1);-ms-transition-timing-function:cubic-bezier(.694,.0482,.335,1);transition-timing-function:cubic-bezier(.694,.0482,.335,1)}
.node:hover .outline{-webkit-transform:scale(1.4);-moz-transform:scale(1.4);-o-transform:scale(1.4);-ms-transform:scale(1.4);transform:scale(1.4)}
.relationship:hover{stroke:#3498db}
.outline,.overlay{cursor:pointer}
g.node text[stroke="#DFE1E3"] {text-shadow: -1px -1px 2px #DFE1E3, -1px 1px 2px #DFE1E3, -1px 0 2px #DFE1E3, 1px -1px 2px #DFE1E3, 1px 1px 2px #DFE1E3, 1px 0 2px #DFE1E3, 0 -1px 2px #DFE1E3, 0 1px 2px #DFE1E3}
g.node text[stroke="#F25A29"] {text-shadow: -1px -1px 2px #F25A29, -1px 1px 2px #F25A29, -1px 0 2px #F25A29, 1px -1px 2px #F25A29, 1px 1px 2px #F25A29, 1px 0 2px #F25A29, 0 -1px 2px #F25A29, 0 1px 2px #F25A29}
g.node text[stroke="#AD62CE"] {text-shadow: -1px -1px 2px #AD62CE, -1px 1px 2px #AD62CE, -1px 0 2px #AD62CE, 1px -1px 2px #AD62CE, 1px 1px 2px #AD62CE, 1px 0 2px #AD62CE, 0 -1px 2px #AD62CE, 0 1px 2px #AD62CE}
g.node text[stroke="#30B6AF"] {text-shadow: -1px -1px 2px #30B6AF, -1px 1px 2px #30B6AF, -1px 0 2px #30B6AF, 1px -1px 2px #30B6AF, 1px 1px 2px #30B6AF, 1px 0 2px #30B6AF, 0 -1px 2px #30B6AF, 0 1px 2px #30B6AF}
g.node text[stroke="#FCC940"] {text-shadow: -1px -1px 2px #FCC940, -1px 1px 2px #FCC940, -1px 0 2px #FCC940, 1px -1px 2px #FCC940, 1px 1px 2px #FCC940, 1px 0 2px #FCC940, 0 -1px 2px #FCC940, 0 1px 2px #FCC940}
g.node text[stroke="#4356C0"] {text-shadow: -1px -1px 2px #4356C0, -1px 1px 2px #4356C0, -1px 0 2px #4356C0, 1px -1px 2px #4356C0, 1px 1px 2px #4356C0, 1px 0 2px #4356C0, 0 -1px 2px #4356C0, 0 1px 2px #4356C0}
g.node text[stroke="#FF6C7C"] {text-shadow: -1px -1px 2px #FF6C7C, -1px 1px 2px #FF6C7C, -1px 0 2px #FF6C7C, 1px -1px 2px #FF6C7C, 1px 1px 2px #FF6C7C, 1px 0 2px #FF6C7C, 0 -1px 2px #FF6C7C, 0 1px 2px #FF6C7C}
g.node text[stroke="#a2cf81"] {text-shadow: -1px -1px 2px #a2cf81, -1px 1px 2px #a2cf81, -1px 0 2px #a2cf81, 1px -1px 2px #a2cf81, 1px 1px 2px #a2cf81, 1px 0 2px #a2cf81, 0 -1px 2px #a2cf81, 0 1px 2px #a2cf81}
g.node text[stroke="#f79235"] {text-shadow: -1px -1px 2px #f79235, -1px 1px 2px #f79235, -1px 0 2px #f79235, 1px -1px 2px #f79235, 1px 1px 2px #f79235, 1px 0 2px #f79235, 0 -1px 2px #f79235, 0 1px 2px #f79235}
g.node text[stroke="#785cc7"] {text-shadow: -1px -1px 2px #785cc7, -1px 1px 2px #785cc7, -1px 0 2px #785cc7, 1px -1px 2px #785cc7, 1px 1px 2px #785cc7, 1px 0 2px #785cc7, 0 -1px 2px #785cc7, 0 1px 2px #785cc7}
g.node text[stroke="#d05e7c"] {text-shadow: -1px -1px 2px #d05e7c, -1px 1px 2px #d05e7c, -1px 0 2px #d05e7c, 1px -1px 2px #d05e7c, 1px 1px 2px #d05e7c, 1px 0 2px #d05e7c, 0 -1px 2px #d05e7c, 0 1px 2px #d05e7c}
g.node text[stroke="#3986b7"] {text-shadow: -1px -1px 2px #3986b7, -1px 1px 2px #3986b7, -1px 0 2px #3986b7, 1px -1px 2px #3986b7, 1px 1px 2px #3986b7, 1px 0 2px #3986b7, 0 -1px 2px #3986b7, 0 1px 2px #3986b7}

</style>
<g class="layer relationships"><g class="relationship"><path fill="#4356C0" stroke="none" d="M 0 1.5 L 20.395338848902384 1.5 L 20.395338848902384 -1.5 L 0 -1.5 Z M 68.73664744265238 1.5 L 89.13198629155477 1.5 L 89.13198629155477 4.5 L 98.13198629155477 0 L 89.13198629155477 -4.5 L 89.13198629155477 -1.5 L 68.73664744265238 -1.5 Z" transform="translate(356.0056120846071 69.83527633172261) rotate(-19.111800006430137)"/><text text-anchor="middle" font-size="9px" fill="#000000" x="398.11519462322383" y="58.7438129543605" transform="rotate(-19.111800006430137 398.11519462322383 55.2438129543605)">CREATED</text><rect class="overlay" fill="yellow" x="0" y="-10" height="20" opacity="0" width="98.13198629155477" transform="translate(356.0056120846071 69.83527633172261) rotate(-19.111800006430137)"/></g><g class="relationship"><path fill="#4356C0" stroke="none" d="M 0 1.5 L 10.409983516058958 1.5 L 10.409983516058958 -1.5 L 0 -1.5 Z M 58.75129210980896 1.5 L 69.16127562586792 1.5 L 69.16127562586792 4.5 L 78.16127562586792 0 L 69.16127562586792 -4.5 L 69.16127562586792 -1.5 L 58.75129210980896 -1.5 Z" transform="translate(318.48257475302233 69.09694948022874) rotate(-158.6337154269591)"/><text text-anchor="middle" font-size="9px" fill="#000000" x="286.2786515671933" y="59.998225616656555" transform="rotate(21.3662845730409 286.2786515671933 56.498225616656555)">CREATED</text><rect class="overlay" fill="yellow" x="0" y="-10" height="20" opacity="0" width="78.16127562586792" transform="translate(318.48257475302233 69.09694948022874) rotate(-158.6337154269591)"/></g><g class="relationship"><path fill="#4356C0" stroke="none" d="M 0 1.5 L 82.03274824602622 1.5 L 82.03274824602622 -1.5 L 0 -1.5 Z M 146.54153730852622 1.5 L 228.57428555455243 1.5 L 228.57428555455243 4.5 L 237.57428555455243 0 L 228.57428555455243 -4.5 L 228.57428555455243 -1.5 L 146.54153730852622 -1.5 Z" transform="translate(336.93866819977956 96.38280970517273) rotate(90.4850542339809)"/><text text-anchor="middle" font-size="9px" fill="#000000" x="335.9711484139641" y="214.1658570466642" transform="rotate(270.4850542339809 335.9711484139641 210.6658570466642)">SUBJECT_OF</text><rect class="overlay" fill="yellow" x="0" y="-10" height="20" opacity="0" width="237.57428555455243" transform="translate(336.93866819977956 96.38280970517273) rotate(90.4850542339809)"/></g><g class="relationship"><path fill="#4356C0" stroke="none" d="M 0 1.5 L 14.87397540377465 1.5 L 14.87397540377465 -1.5 L 0 -1.5 Z M 80.89448321627465 1.5 L 95.7684586200493 1.5 L 95.7684586200493 4.5 L 104.7684586200493 0 L 95.7684586200493 -4.5 L 95.7684586200493 -1.5 L 80.89448321627465 -1.5 Z" transform="translate(356.1450803792591 82.5145040560186) rotate(17.851372704389703)"/><text text-anchor="middle" font-size="9px" fill="#000000" x="401.7239194786405" y="100.69336106083098" transform="rotate(17.851372704389703 401.7239194786405 97.19336106083098)">EXAMPLE_OF</text><rect class="overlay" fill="yellow" x="0" y="-10" height="20" opacity="0" width="104.7684586200493" transform="translate(356.1450803792591 82.5145040560186) rotate(17.851372704389703)"/></g><g class="relationship"><path fill="#4356C0" stroke="none" d="M 0 1.5 L 155.44759864245816 1.5 L 155.44759864245816 -1.5 L 0 -1.5 Z M 232.45882911120816 1.5 L 387.9064277536663 1.5 L 387.9064277536663 4.5 L 396.9064277536663 0 L 387.9064277536663 -4.5 L 387.9064277536663 -1.5 L 232.45882911120816 -1.5 Z" transform="translate(62.07230926957898 178.89008268438158) rotate(-8.014681484406314)"/><text text-anchor="middle" font-size="9px" fill="#000000" x="254.13106078541728" y="155.34779839976403" transform="rotate(-8.014681484406314 254.13106078541728 151.84779839976403)">INTERESTED_IN</text><rect class="overlay" fill="yellow" x="0" y="-10" height="20" opacity="0" width="396.9064277536663" transform="translate(62.07230926957898 178.89008268438158) rotate(-8.014681484406314)"/></g><g class="relationship"><path fill="#4356C0" stroke="none" d="M 0 1.5 L 1.8657963223707554 1.5 L 1.8657963223707554 -1.5 L 0 -1.5 Z M 78.87702679112076 1.5 L 80.74282311349151 1.5 L 80.74282311349151 4.5 L 89.74282311349151 0 L 80.74282311349151 -4.5 L 80.74282311349151 -1.5 L 78.87702679112076 -1.5 Z" transform="translate(59.38533110629906 171.3352450047649) rotate(-31.142526194739382)"/><text text-anchor="middle" font-size="9px" fill="#000000" x="93.93855476967201" y="153.9564134868598" transform="rotate(-31.142526194739382 93.93855476967201 150.4564134868598)">INTERESTED_IN</text><rect class="overlay" fill="yellow" x="0" y="-10" height="20" opacity="0" width="89.74282311349151" transform="translate(59.38533110629906 171.3352450047649) rotate(-31.142526194739382)"/></g><g class="relationship"><path fill="#4356C0" stroke="none" d="M 0 1.5 L 18.931976878322118 1.5 L 18.931976878322118 -1.5 L 0 -1.5 Z M 95.94320734707212 1.5 L 114.87518422539424 1.5 L 114.87518422539424 4.5 L 123.87518422539424 0 L 114.87518422539424 -4.5 L 114.87518422539424 -1.5 L 95.94320734707212 -1.5 Z" transform="translate(608.2223262430838 174.8636398106474) rotate(-157.91196158571714)"/><text text-anchor="middle" font-size="9px" fill="#000000" x="555.0002424447964" y="156.7653346949063" transform="rotate(22.088038414282863 555.0002424447964 153.2653346949063)">INTERESTED_IN</text><rect class="overlay" fill="yellow" x="0" y="-10" height="20" opacity="0" width="123.87518422539424" transform="translate(608.2223262430838 174.8636398106474) rotate(-157.91196158571714)"/></g><g class="relationship"><path fill="#4356C0" stroke="none" d="M 0 1.5 L 176.13077543394547 1.5 L 176.13077543394547 -1.5 L 0 -1.5 Z M 253.14200590269547 1.5 L 429.27278133664095 1.5 L 429.27278133664095 4.5 L 438.27278133664095 0 L 429.27278133664095 -4.5 L 429.27278133664095 -1.5 L 253.14200590269547 -1.5 Z" transform="translate(606.9564758541918 179.54886319081126) rotate(-171.8497384602582)"/><text text-anchor="middle" font-size="9px" fill="#000000" x="394.48798267981397" y="152.6199360435514" transform="rotate(8.150261539741791 394.48798267981397 149.1199360435514)">INTERESTED_IN</text><rect class="overlay" fill="yellow" x="0" y="-10" height="20" opacity="0" width="438.27278133664095" transform="translate(606.9564758541918 179.54886319081126) rotate(-171.8497384602582)"/></g><g class="relationship"><path fill="#4356C0" stroke="none" d="M 0 1.5 L 108.72407221949663 1.5 L 108.72407221949663 -1.5 L 0 -1.5 Z M 181.72749018824663 1.5 L 290.45156240774327 1.5 L 290.45156240774327 4.5 L 299.45156240774327 0 L 290.45156240774327 -4.5 L 290.45156240774327 -1.5 L 181.72749018824663 -1.5 Z" transform="translate(317.5250043575459 343.79800790160454) rotate(-149.50302548966042)"/><text text-anchor="middle" font-size="9px" fill="#000000" x="192.39034448408955" y="273.59696025213634" transform="rotate(30.496974510339584 192.39034448408955 270.09696025213634)">TRAINING_FOR</text><rect class="overlay" fill="yellow" x="0" y="-10" height="20" opacity="0" width="299.45156240774327" transform="translate(317.5250043575459 343.79800790160454) rotate(-149.50302548966042)"/></g><g class="relationship"><path fill="#4356C0" stroke="none" d="M 0 1.5 L 108.33223463410837 1.5 L 108.33223463410837 -1.5 L 0 -1.5 Z M 181.33565260285837 1.5 L 289.66788723696675 1.5 L 289.66788723696675 4.5 L 298.66788723696675 0 L 289.66788723696675 -4.5 L 289.66788723696675 -1.5 L 181.33565260285837 -1.5 Z" transform="translate(352.00194009173265 343.8161925132113) rotate(-30.43653402290376)"/><text text-anchor="middle" font-size="9px" fill="#000000" x="476.8764377221167" y="273.9456870928366" transform="rotate(-30.43653402290376 476.8764377221167 270.4456870928366)">TRAINING_FOR</text><rect class="overlay" fill="yellow" x="0" y="-10" height="20" opacity="0" width="298.66788723696675" transform="translate(352.00194009173265 343.8161925132113) rotate(-30.43653402290376)"/></g><g class="relationship"><path fill="#4356C0" stroke="none" d="M 0 1.5 L 101.43099763568515 1.5 L 101.43099763568515 -1.5 L 0 -1.5 Z M 149.93490388568515 1.5 L 251.3659015213703 1.5 L 251.3659015213703 4.5 L 260.3659015213703 0 L 251.3659015213703 -4.5 L 251.3659015213703 -1.5 L 149.93490388568515 -1.5 Z" transform="translate(322.67647755365385 338.0094264279172) rotate(-127.16283374805624)"/><text text-anchor="middle" font-size="9px" fill="#000000" x="246.75363160315032" y="241.34992575679308" transform="rotate(52.837166251943756 246.75363160315032 237.84992575679308)">FOSTERS</text><rect class="overlay" fill="yellow" x="0" y="-10" height="20" opacity="0" width="260.3659015213703" transform="translate(322.67647755365385 338.0094264279172) rotate(-127.16283374805624)"/></g><g class="relationship"><path fill="#4356C0" stroke="none" d="M 0 1.5 L 87.2785271087192 1.5 L 87.2785271087192 -1.5 L 0 -1.5 Z M 135.7824333587192 1.5 L 223.0609604674384 1.5 L 223.0609604674384 4.5 L 232.0609604674384 0 L 223.0609604674384 -4.5 L 223.0609604674384 -1.5 L 135.7824333587192 -1.5 Z" transform="translate(345.0608459534518 336.8056975529763) rotate(-58.99344612242832)"/><text text-anchor="middle" font-size="9px" fill="#000000" x="402.514224815679" y="244.71198814447277" transform="rotate(-58.99344612242832 402.514224815679 241.21198814447277)">FOSTERS</text><rect class="overlay" fill="yellow" x="0" y="-10" height="20" opacity="0" width="232.0609604674384" transform="translate(345.0608459534518 336.8056975529763) rotate(-58.99344612242832)"/></g></g><g class="layer nodes"><g class="node" transform="translate(337.1079820459925,76.38352639747691)"><circle class="outline" cx="0" cy="0" r="20" fill="#F25A29" stroke="#DC4717" stroke-width="2px"/><text text-anchor="middle" font-weight="bold" stroke="#F25A29" stroke-width="0" y="5" font-size="12px" fill="#FFFFFF">Panini</text></g><g class="node" transform="translate(653.8640117724918,337.7437536634751)"><circle class="outline" cx="0" cy="0" r="20" fill="#F25A29" stroke="#DC4717" stroke-width="2px"/><text text-anchor="middle" font-weight="bold" stroke="#F25A29" stroke-width="0" y="-20" font-size="12px" fill="#FFFFFF">You</text><text text-anchor="middle" font-weight="bold" stroke="#F25A29" stroke-width="0" y="-10" font-size="12px" fill="#FFFFFF">-</text><text text-anchor="middle" font-weight="bold" stroke="#F25A29" stroke-width="0" y="0" font-size="12px" fill="#FFFFFF">How</text><text text-anchor="middle" font-weight="bold" stroke="#F25A29" stroke-width="0" y="10" font-size="12px" fill="#FFFFFF">will</text><text text-anchor="middle" font-weight="bold" stroke="#F25A29" stroke-width="0" y="20" font-size="12px" fill="#FFFFFF">you</text><text text-anchor="middle" font-weight="bold" stroke="#F25A29" stroke-width="0" y="30" font-size="12px" fill="#FFFFFF">connect?</text></g><g class="node" transform="translate(42.26766177992181,181.6786195427386)"><circle class="outline" cx="0" cy="0" r="20" fill="#AD62CE" stroke="#9453B1" stroke-width="2px"/><text text-anchor="middle" font-weight="bold" stroke="#AD62CE" stroke-width="0" y="-5" font-size="12px" fill="#FFFFFF">The</text><text text-anchor="middle" font-weight="bold" stroke="#AD62CE" stroke-width="0" y="5" font-size="12px" fill="#FFFFFF">Writing</text><text text-anchor="middle" font-weight="bold" stroke="#AD62CE" stroke-width="0" y="15" font-size="12px" fill="#FFFFFF">Studio</text></g><g class="node" transform="translate(626.7544693363602,182.38425629936216)"><circle class="outline" cx="0" cy="0" r="20" fill="#AD62CE" stroke="#9453B1" stroke-width="2px"/><text text-anchor="middle" font-weight="bold" stroke="#AD62CE" stroke-width="0" y="0" font-size="12px" fill="#FFFFFF">Tutoring</text><text text-anchor="middle" font-weight="bold" stroke="#AD62CE" stroke-width="0" y="10" font-size="12px" fill="#FFFFFF">Services</text></g><g class="node" transform="translate(334.75812355113993,353.94786518431454)"><circle class="outline" cx="0" cy="0" r="20" fill="#30B6AF" stroke="#46A39E" stroke-width="2px"/><text text-anchor="middle" font-weight="bold" stroke="#30B6AF" stroke-width="0" y="-5" font-size="12px" fill="#FFFFFF">The</text><text text-anchor="middle" font-weight="bold" stroke="#30B6AF" stroke-width="0" y="5" font-size="12px" fill="#FFFFFF">Panini</text><text text-anchor="middle" font-weight="bold" stroke="#30B6AF" stroke-width="0" y="15" font-size="12px" fill="#FFFFFF">Project</text></g><g class="node" transform="translate(227.06788780655762,33.333965223074514)"><circle class="outline" cx="0" cy="0" r="20" fill="#FCC940" stroke="#F3BA25" stroke-width="2px"/><text text-anchor="middle" font-weight="bold" stroke="#FCC940" stroke-width="0" y="0" font-size="12px" fill="#000000">Sanskrit</text><text text-anchor="middle" font-weight="bold" stroke="#FCC940" stroke-width="0" y="10" font-size="12px" fill="#000000">Grammar</text></g><g class="node" transform="translate(467.6263407178318,31.157386981654668)"><circle class="outline" cx="0" cy="0" r="20" fill="#FCC940" stroke="#F3BA25" stroke-width="2px"/><text text-anchor="middle" font-weight="bold" stroke="#FCC940" stroke-width="0" y="-5" font-size="12px" fill="#000000">The</text><text text-anchor="middle" font-weight="bold" stroke="#FCC940" stroke-width="0" y="5" font-size="12px" fill="#000000">Number</text><text text-anchor="middle" font-weight="bold" stroke="#FCC940" stroke-width="0" y="15" font-size="12px" fill="#000000">Zero</text></g><g class="node" transform="translate(153.312398956292,114.57968888889275)"><circle class="outline" cx="0" cy="0" r="20" fill="#FCC940" stroke="#F3BA25" stroke-width="2px"/><text text-anchor="middle" font-weight="bold" stroke="#FCC940" stroke-width="0" y="0" font-size="12px" fill="#000000">Collaborative</text><text text-anchor="middle" font-weight="bold" stroke="#FCC940" stroke-width="0" y="10" font-size="12px" fill="#000000">Learning</text></g><g class="node" transform="translate(474.90655116125845,120.76213567052878)"><circle class="outline" cx="0" cy="0" r="20" fill="#FCC940" stroke="#F3BA25" stroke-width="2px"/><text text-anchor="middle" font-weight="bold" stroke="#FCC940" stroke-width="0" y="5" font-size="12px" fill="#000000">Transdisciplinarity</text></g></g></svg>